HIERARCHY
ROOT Hips
{
	OFFSET -0.001795 -0.223333 0.028219
	CHANNELS 6 Xposition Yposition Zposition Zrotation Yrotation Xrotation 
	JOINT LeftUpLeg
	{
		OFFSET 0.069520 -0.091406 -0.006815
		CHANNELS 3 Zrotation Yrotation Xrotation
		JOINT LeftLeg
		{
			OFFSET 0.034277 -0.375199 -0.004496
			CHANNELS 3 Zrotation Yrotation Xrotation
			JOINT LeftFoot
			{
				OFFSET -0.013596 -0.397961 -0.043693
				CHANNELS 3 Zrotation Yrotation Xrotation
				JOINT LeftToe
				{
					OFFSET 0.026358 -0.055791 0.119288
					CHANNELS 3 Zrotation Yrotation Xrotation
					End Site
					{
						OFFSET 0.000000 0.000000 0.000000
					}
				}
			}
		}
	}
	JOINT RightUpLeg
	{
		OFFSET -0.067670 -0.090522 -0.004320
		CHANNELS 3 Zrotation Yrotation Xrotation
		JOINT RightLeg
		{
			OFFSET -0.038290 -0.382569 -0.008850
			CHANNELS 3 Zrotation Yrotation Xrotation
			JOINT RightFoot
			{
				OFFSET 0.015774 -0.398415 -0.042312
				CHANNELS 3 Zrotation Yrotation Xrotation
				JOINT RightToe
				{
					OFFSET -0.025372 -0.048144 0.123348
					CHANNELS 3 Zrotation Yrotation Xrotation
					End Site
					{
						OFFSET 0.000000 0.000000 0.000000
					}
				}
			}
		}
	}
	JOINT Spine
	{
		OFFSET -0.002533 0.108963 -0.026696
		CHANNELS 3 Zrotation Yrotation Xrotation
		JOINT Spine1
		{
			OFFSET 0.005487 0.135180 0.001092
			CHANNELS 3 Zrotation Yrotation Xrotation
			JOINT Spine2
			{
				OFFSET 0.001457 0.052922 0.025425
				CHANNELS 3 Zrotation Yrotation Xrotation
				JOINT Neck
				{
					OFFSET -0.002778 0.213870 -0.042857
					CHANNELS 3 Zrotation Yrotation Xrotation
					JOINT Head
					{
						OFFSET 0.005152 0.064970 0.051349
						CHANNELS 3 Zrotation Yrotation Xrotation
						End Site
						{
							OFFSET 0.000000 0.000000 0.000000
						}
					}
				}
				JOINT LeftShoulder
				{
					OFFSET 0.078845 0.121749 -0.034090
					CHANNELS 3 Zrotation Yrotation Xrotation
					JOINT LeftArm
					{
						OFFSET 0.090977 0.030469 -0.008868
						CHANNELS 3 Zrotation Yrotation Xrotation
						JOINT LeftForeArm
						{
							OFFSET 0.259612 -0.012772 -0.027456
							CHANNELS 3 Zrotation Yrotation Xrotation
							JOINT LeftHand
							{
								OFFSET 0.249234 0.008986 -0.001171
								CHANNELS 3 Zrotation Yrotation Xrotation
								End Site
								{
									OFFSET 0.000000 0.000000 0.000000
								}
							}
						}
					}
				}
				JOINT RightShoulder
				{
					OFFSET -0.081759 0.118833 -0.038615
					CHANNELS 3 Zrotation Yrotation Xrotation
					JOINT RightArm
					{
						OFFSET -0.096012 0.032551 -0.009143
						CHANNELS 3 Zrotation Yrotation Xrotation
						JOINT RightForeArm
						{
							OFFSET -0.253742 -0.013329 -0.021401
							CHANNELS 3 Zrotation Yrotation Xrotation
							JOINT RightHand
							{
								OFFSET -0.255298 0.007772 -0.005559
								CHANNELS 3 Zrotation Yrotation Xrotation
								End Site
								{
									OFFSET 0.000000 0.000000 0.000000
								}
							}
						}
					}
				}
			}
		}
	}
}
MOTION
Frames: 9
Frame Time: 0.050000
0.000000 0.930547 0.000000 -1.525909 -1.169243 3.702755 -0.209014 -0.106283 -1.176199 0.303553 -0.079067 1.265365 3.414121 6.466790 -2.525213 0.000000 0.000000 0.000000 -3.497595 0.644736 -7.483880 -0.615650 0.533369 10.031247 -1.861972 -3.975432 -1.753315 0.000000 0.000000 0.000000 6.008734 -0.068745 -0.620646 -0.922975 0.504180 -4.768543 -2.807214 3.557193 7.772246 5.860320 -2.360582 -14.426657 0.000000 0.000000 0.000000 -4.501907 3.947011 -2.060629 -19.369730 -8.476018 -1.226267 14.601352 -8.493680 -0.816891 0.000000 0.000000 0.000000 4.233927 -10.010210 -4.125447 23.979526 4.289976 -1.834492 -11.994201 17.998227 -0.892307 0.000000 0.000000 0.000000 
-0.000432 0.928866 0.001443 -1.941264 -1.310265 4.050382 0.596218 -0.043614 -0.352011 0.128294 0.003487 -0.506016 3.676377 6.907245 -3.018493 0.000000 0.000000 0.000000 -3.167145 0.660056 -7.495624 -0.425129 0.466669 9.357922 -2.328550 -4.906171 -2.446574 0.000000 0.000000 0.000000 7.142050 -0.108985 -0.488965 -1.036112 0.534693 -3.575925 -3.611715 4.755393 5.541362 5.658723 -1.905065 -15.373245 0.000000 0.000000 0.000000 -4.215816 3.730761 -2.002613 -18.884307 -9.209908 -0.979431 13.115116 -6.978253 -0.616785 0.000000 0.000000 0.000000 3.225453 -11.854614 -4.679382 25.963376 3.117443 -2.071286 -13.687445 19.713838 -1.145906 0.000000 0.000000 0.000000 
-0.002080 0.927339 0.003462 -1.589037 -1.672325 3.811168 0.544032 -0.026214 -0.168822 0.046878 -0.022216 0.508482 4.129006 7.754915 -3.701444 0.000000 0.000000 0.000000 -3.847836 0.682363 -8.112967 0.352107 0.417605 11.560802 -2.324681 -4.341956 -3.632821 0.000000 0.000000 0.000000 7.459982 -0.128565 -0.273948 -1.495672 0.746130 -5.593836 -3.557628 5.262606 7.447062 5.701875 -1.956950 -15.272612 0.000000 0.000000 0.000000 -3.779940 4.400127 -2.171135 -19.074436 -10.309085 -0.937255 13.797385 -5.298183 -0.515299 0.000000 0.000000 0.000000 3.841458 -12.054338 -4.846845 25.764363 4.050081 -2.013116 -15.431419 20.165647 -1.407432 0.000000 0.000000 0.000000 
-0.005098 0.926107 0.006034 -1.535610 -1.814218 3.686108 0.804123 0.016144 0.377764 -0.367775 0.019896 0.710086 4.221283 7.923860 -3.888296 0.000000 0.000000 0.000000 -3.829160 0.673326 -7.974467 0.123005 0.469193 11.608082 -1.985003 -3.245476 -3.922081 0.000000 0.000000 0.000000 7.304586 -0.083451 -0.635269 -1.215616 0.619627 -4.702670 -3.743575 5.140458 6.430537 4.920381 -1.518080 -14.877756 0.000000 0.000000 0.000000 -3.958074 5.269986 -2.520065 -19.316340 -10.820197 -0.843851 14.637738 -4.203847 -0.452775 0.000000 0.000000 0.000000 3.525003 -12.804008 -5.092904 25.399381 4.107078 -1.913019 -15.790646 21.503097 -1.593525 0.000000 0.000000 0.000000 
-0.009952 0.925885 0.008918 -1.377637 -1.710499 3.195092 0.844862 0.063274 0.929077 -0.383808 0.005818 1.246533 4.100954 7.571772 -4.121474 0.000000 0.000000 0.000000 -3.858293 0.606302 -7.089006 0.178768 0.451771 11.506163 -2.215127 -4.066106 -3.553694 0.000000 0.000000 0.000000 7.191457 -0.057523 -0.749675 -0.984261 0.522677 -4.665395 -3.739387 4.792862 6.051635 5.292488 -1.905300 -14.005132 0.000000 0.000000 0.000000 -4.442919 5.332011 -2.626056 -19.119150 -10.986388 -0.809493 14.833419 -4.271497 -0.460343 0.000000 0.000000 0.000000 3.699270 -13.063525 -5.221695 25.039279 3.879722 -1.905191 -16.951989 24.597392 -2.121281 0.000000 0.000000 0.000000 
-0.016639 0.925283 0.011569 -1.411220 -1.795366 2.940020 0.905442 0.084068 1.183305 -0.029652 -0.064181 2.065638 4.026661 7.311515 -4.448162 0.000000 0.000000 0.000000 -3.592027 0.578652 -6.617895 -0.055071 0.504009 11.568023 -2.248633 -3.873332 -4.130763 0.000000 0.000000 0.000000 6.755122 -0.014223 -1.069086 -0.624909 0.358541 -3.996115 -3.660437 4.699295 5.707058 5.211440 -1.954136 -13.377586 0.000000 0.000000 0.000000 -4.365698 5.830529 -2.789429 -19.779578 -11.662466 -0.731281 15.784330 -4.543360 -0.529834 0.000000 0.000000 0.000000 3.618087 -13.056442 -5.204379 25.779485 3.594274 -1.970659 -18.321912 27.152467 -2.684681 0.000000 0.000000 0.000000 
-0.024903 0.925315 0.013352 -1.322850 -2.286298 2.773608 1.326500 0.078674 1.229025 -0.249242 -0.048892 2.541215 4.062443 7.466893 -4.351914 0.000000 0.000000 0.000000 -3.226776 0.569605 -6.365511 0.193340 0.468637 11.710468 -2.477646 -4.296294 -4.493037 0.000000 0.000000 0.000000 6.793723 0.011316 -1.255936 -0.566555 0.327699 -3.988607 -3.950664 4.719199 5.925985 5.400213 -2.073603 -13.537999 0.000000 0.000000 0.000000 -4.827309 6.013278 -2.940609 -19.922143 -11.084167 -0.817641 16.598469 -6.140595 -0.743659 0.000000 0.000000 0.000000 4.548200 -13.199199 -5.416742 25.439922 3.220752 -2.026830 -18.803355 30.382375 -3.212528 0.000000 0.000000 0.000000 
-0.034484 0.925104 0.014353 -1.252657 -2.296346 2.905535 1.745573 0.055078 1.072364 -0.180190 -0.081904 3.326653 4.106669 7.517998 -4.541853 0.000000 0.000000 0.000000 -2.220322 0.610957 -6.613624 0.098355 0.520380 12.397068 -2.621264 -4.372679 -5.170315 0.000000 0.000000 0.000000 6.732398 0.044831 -1.616141 -0.499185 0.294208 -3.726025 -3.972529 4.225062 6.453892 5.339935 -2.131309 -13.286235 0.000000 0.000000 0.000000 -5.926718 6.184456 -3.196699 -20.454123 -10.326242 -0.960025 17.957508 -8.421974 -1.091552 0.000000 0.000000 0.000000 5.864100 -13.287925 -5.693575 25.667318 3.129949 -2.082265 -19.814098 32.837579 -3.858371 0.000000 0.000000 0.000000 
-0.044940 0.924684 0.014607 -1.187983 -2.937372 2.747657 2.232731 0.047562 1.074007 -0.380938 -0.069786 4.008112 3.943537 7.174827 -4.628264 0.000000 0.000000 0.000000 -1.574764 0.623252 -6.584383 0.480670 0.474520 12.872565 -2.559129 -3.981434 -5.448921 0.000000 0.000000 0.000000 6.791665 0.041746 -1.519366 -0.730328 0.385924 -3.493450 -4.000448 3.981655 7.036346 4.566665 -1.675159 -13.430860 0.000000 0.000000 0.000000 -7.056099 6.370063 -3.446906 -21.973297 -9.717964 -1.133733 19.172180 -11.316671 -1.554468 0.000000 0.000000 0.000000 6.855466 -12.916434 -5.736989 26.284422 2.764982 -2.207155 -19.132568 35.662519 -4.139898 0.000000 0.000000 0.000000 
